<svg xmlns="http://www.w3.org/2000/svg" width="48" height="48" viewBox="0 0 48 48" fill="currentColor">
    <path fill-rule="evenodd" clip-rule="evenodd" d="M6.51257 6.51256C7.19598 5.82915 8.30402 5.82915 8.98744 6.51256L24 21.5251L39.0126 6.51256C39.696 5.82915 40.804 5.82915 41.4874 6.51256C42.1709 7.19598 42.1709 8.30402 41.4874 8.98744L26.4749 24L41.4874 39.0126C42.1709 39.696 42.1709 40.804 41.4874 41.4874C40.804 42.1709 39.696 42.1709 39.0126 41.4874L24 26.4749L8.98744 41.4874C8.30402 42.1708 7.19598 42.1708 6.51256 41.4874C5.82915 40.804 5.82915 39.696 6.51256 39.0126L21.5251 24L6.51257 8.98744C5.82915 8.30402 5.82915 7.19598 6.51257 6.51256Z" fill="currentColor"/>
</svg>