<?xml version="1.0" encoding="utf-8"?>
<!-- Generator: Adobe Illustrator 22.1.0, SVG Export Plug-In . SVG Version: 6.00 Build 0)  -->
<svg version="1.1" id="Layer_1" xmlns="http://www.w3.org/2000/svg" xmlns:xlink="http://www.w3.org/1999/xlink" x="0px" y="0px"
	 viewBox="0 0 481.9 566.9" style="enable-background:new 0 0 481.9 566.9;" xml:space="preserve">
<style type="text/css">
	.st0{fill:url(#SVGID_1_);}
	.st1{fill:url(#SVGID_2_);}
	.st2{fill:url(#SVGID_3_);}
	.st3{fill:url(#SVGID_4_);}
	.st4{fill:url(#SVGID_5_);}
	.st5{fill:none;stroke:#B7B6B6;stroke-width:1.000000e-03;}
	.st6{fill:none;}
	.st7{fill:url(#SVGID_6_);}
	.st8{fill:url(#SVGID_7_);}
	.st9{fill:url(#SVGID_8_);}
	.st10{fill:url(#SVGID_9_);}
	.st11{fill:url(#SVGID_10_);}
	.st12{fill:url(#SVGID_11_);}
	.st13{fill:url(#SVGID_12_);}
	.st14{fill:url(#SVGID_13_);}
	.st15{fill:url(#SVGID_14_);}
	.st16{fill:url(#SVGID_15_);}
	.st17{fill:url(#SVGID_16_);}
	.st18{fill:url(#SVGID_17_);}
	.st19{fill:url(#SVGID_18_);}
	.st20{fill:url(#SVGID_19_);}
	.st21{fill:url(#SVGID_20_);}
	.st22{opacity:0.66;fill:none;stroke:#B7B6B6;stroke-width:1.000000e-03;}
	.Diamond_x0020_Ray{fill:url(#SVGID_21_);stroke:#B7B6B6;stroke-width:1.000000e-03;}
	.st23{fill:#FFFFFF;}
	.st24{font-family:'Lato-Black';}
	.st25{font-size:40.8226px;}
</style>
<symbol  id="Diamond_Tear_2" viewBox="-5.4 -8.6 10.9 17.1">
	<g>
		<linearGradient id="SVGID_1_" gradientUnits="userSpaceOnUse" x1="-5.436" y1="0" x2="5.436" y2="0">
			<stop  offset="0" style="stop-color:#D1C5C4"/>
			<stop  offset="0.1803" style="stop-color:#D7CCCB"/>
			<stop  offset="0.4174" style="stop-color:#E7E2E0"/>
			<stop  offset="0.5112" style="stop-color:#EFEDEB"/>
			<stop  offset="0.6302" style="stop-color:#CDC9C9"/>
			<stop  offset="0.8785" style="stop-color:#837C7E"/>
			<stop  offset="1" style="stop-color:#615A5D"/>
		</linearGradient>
		<path class="st0" d="M0,8.6c0,0-5.4-5.5-5.4-11.2C-5.4-5.9-3-8.6,0-8.6c3,0,5.4,2.6,5.4,5.9C5.4,3.1,0,8.6,0,8.6z"/>
		<linearGradient id="SVGID_2_" gradientUnits="userSpaceOnUse" x1="0" y1="-8.5684" x2="1.049321e-15" y2="8.5684">
			<stop  offset="0.3278" style="stop-color:#B4E1FA;stop-opacity:0"/>
			<stop  offset="0.3624" style="stop-color:#BBE3FA;stop-opacity:0.1416"/>
			<stop  offset="0.4081" style="stop-color:#CBE9FC;stop-opacity:0.3282"/>
			<stop  offset="0.4597" style="stop-color:#E3F3FE;stop-opacity:0.5391"/>
			<stop  offset="0.5112" style="stop-color:#FFFFFF;stop-opacity:0.75"/>
			<stop  offset="0.5604" style="stop-color:#ECF7FE;stop-opacity:0.5127"/>
			<stop  offset="0.6632" style="stop-color:#B7E2FA;stop-opacity:1.684600e-02"/>
			<stop  offset="0.6667" style="stop-color:#B4E1FA;stop-opacity:0"/>
		</linearGradient>
		<path class="st1" d="M0,8.6c0,0-5.4-5.5-5.4-11.2C-5.4-5.9-3-8.6,0-8.6c3,0,5.4,2.6,5.4,5.9C5.4,3.1,0,8.6,0,8.6z"/>
		<linearGradient id="SVGID_3_" gradientUnits="userSpaceOnUse" x1="-4.8144" y1="-5.8767" x2="4.8163" y2="3.754">
			<stop  offset="0.3278" style="stop-color:#B4E1FA;stop-opacity:0"/>
			<stop  offset="0.3624" style="stop-color:#BBE3FA;stop-opacity:0.1416"/>
			<stop  offset="0.4081" style="stop-color:#CBE9FC;stop-opacity:0.3282"/>
			<stop  offset="0.4597" style="stop-color:#E3F3FE;stop-opacity:0.5391"/>
			<stop  offset="0.5112" style="stop-color:#FFFFFF;stop-opacity:0.75"/>
			<stop  offset="0.5604" style="stop-color:#ECF7FE;stop-opacity:0.5127"/>
			<stop  offset="0.6632" style="stop-color:#B7E2FA;stop-opacity:1.684600e-02"/>
			<stop  offset="0.6667" style="stop-color:#B4E1FA;stop-opacity:0"/>
		</linearGradient>
		<path class="st2" d="M0,8.6c0,0-5.4-5.5-5.4-11.2C-5.4-5.9-3-8.6,0-8.6c3,0,5.4,2.6,5.4,5.9C5.4,3.1,0,8.6,0,8.6z"/>
		<linearGradient id="SVGID_4_" gradientUnits="userSpaceOnUse" x1="4.8153" y1="-5.8757" x2="-4.8134" y2="3.753">
			<stop  offset="0.3278" style="stop-color:#B4E1FA;stop-opacity:0"/>
			<stop  offset="0.3624" style="stop-color:#BBE3FA;stop-opacity:0.1416"/>
			<stop  offset="0.4081" style="stop-color:#CBE9FC;stop-opacity:0.3282"/>
			<stop  offset="0.4597" style="stop-color:#E3F3FE;stop-opacity:0.5391"/>
			<stop  offset="0.5112" style="stop-color:#FFFFFF;stop-opacity:0.75"/>
			<stop  offset="0.5604" style="stop-color:#ECF7FE;stop-opacity:0.5127"/>
			<stop  offset="0.6632" style="stop-color:#B7E2FA;stop-opacity:1.684600e-02"/>
			<stop  offset="0.6667" style="stop-color:#B4E1FA;stop-opacity:0"/>
		</linearGradient>
		<path class="st3" d="M0,8.6c0,0-5.4-5.5-5.4-11.2C-5.4-5.9-3-8.6,0-8.6c3,0,5.4,2.6,5.4,5.9C5.4,3.1,0,8.6,0,8.6z"/>
		<linearGradient id="SVGID_5_" gradientUnits="userSpaceOnUse" x1="-5.436" y1="0" x2="5.436" y2="0">
			<stop  offset="0.35" style="stop-color:#B4E1FA;stop-opacity:0"/>
			<stop  offset="0.3804" style="stop-color:#BBE3FA;stop-opacity:0.1416"/>
			<stop  offset="0.4206" style="stop-color:#CBE9FC;stop-opacity:0.3282"/>
			<stop  offset="0.4659" style="stop-color:#E3F3FE;stop-opacity:0.5391"/>
			<stop  offset="0.5112" style="stop-color:#FFFFFF;stop-opacity:0.75"/>
			<stop  offset="0.5499" style="stop-color:#ECF7FE;stop-opacity:0.5127"/>
			<stop  offset="0.6306" style="stop-color:#B7E2FA;stop-opacity:1.684600e-02"/>
			<stop  offset="0.6333" style="stop-color:#B4E1FA;stop-opacity:0"/>
		</linearGradient>
		<path class="st4" d="M0,8.6c0,0-5.4-5.5-5.4-11.2C-5.4-5.9-3-8.6,0-8.6c3,0,5.4,2.6,5.4,5.9C5.4,3.1,0,8.6,0,8.6z"/>
		<path class="st5" d="M0,8.6c0,0-5.4-5.5-5.4-11.2C-5.4-5.9-3-8.6,0-8.6c3,0,5.4,2.6,5.4,5.9C5.4,3.1,0,8.6,0,8.6z"/>
	</g>
	<polygon class="st6" points="2.6,-2.4 0,6.8 -3.8,-6.7 -1,-6.4 0,-8.6 1,-6.4 3.8,-6.7 	"/>
	<g>
		<linearGradient id="SVGID_6_" gradientUnits="userSpaceOnUse" x1="-4.4307" y1="-7.910000e-02" x2="4.4326" y2="-7.910000e-02">
			<stop  offset="0" style="stop-color:#D1C5C4"/>
			<stop  offset="0.1803" style="stop-color:#D7CCCB"/>
			<stop  offset="0.4174" style="stop-color:#E7E2E0"/>
			<stop  offset="0.5112" style="stop-color:#EFEDEB"/>
			<stop  offset="0.6302" style="stop-color:#CDC9C9"/>
			<stop  offset="0.8785" style="stop-color:#837C7E"/>
			<stop  offset="1" style="stop-color:#615A5D"/>
		</linearGradient>
		<path class="st7" d="M-4.4-0.1C-4.4,4.6,0,8.4,0,8.4s4.4-3.8,4.4-8.5C4.4-4.8,0-8.6,0-8.6S-4.4-4.8-4.4-0.1z"/>
		<linearGradient id="SVGID_7_" gradientUnits="userSpaceOnUse" x1="9.800000e-04" y1="-8.5684" x2="9.800000e-04" y2="8.4102">
			<stop  offset="0.3278" style="stop-color:#B4E1FA;stop-opacity:0"/>
			<stop  offset="0.3624" style="stop-color:#BBE3FA;stop-opacity:0.1416"/>
			<stop  offset="0.4081" style="stop-color:#CBE9FC;stop-opacity:0.3282"/>
			<stop  offset="0.4597" style="stop-color:#E3F3FE;stop-opacity:0.5391"/>
			<stop  offset="0.5112" style="stop-color:#FFFFFF;stop-opacity:0.75"/>
			<stop  offset="0.5604" style="stop-color:#ECF7FE;stop-opacity:0.5127"/>
			<stop  offset="0.6632" style="stop-color:#B7E2FA;stop-opacity:1.684600e-02"/>
			<stop  offset="0.6667" style="stop-color:#B4E1FA;stop-opacity:0"/>
		</linearGradient>
		<path class="st8" d="M-4.4-0.1C-4.4,4.6,0,8.4,0,8.4s4.4-3.8,4.4-8.5C4.4-4.8,0-8.6,0-8.6S-4.4-4.8-4.4-0.1z"/>
		<linearGradient id="SVGID_8_" gradientUnits="userSpaceOnUse" x1="-4.2587" y1="-4.3379" x2="4.2589" y2="4.1797">
			<stop  offset="0.3278" style="stop-color:#B4E1FA;stop-opacity:0"/>
			<stop  offset="0.3624" style="stop-color:#BBE3FA;stop-opacity:0.1416"/>
			<stop  offset="0.4081" style="stop-color:#CBE9FC;stop-opacity:0.3282"/>
			<stop  offset="0.4597" style="stop-color:#E3F3FE;stop-opacity:0.5391"/>
			<stop  offset="0.5112" style="stop-color:#FFFFFF;stop-opacity:0.75"/>
			<stop  offset="0.5604" style="stop-color:#ECF7FE;stop-opacity:0.5127"/>
			<stop  offset="0.6632" style="stop-color:#B7E2FA;stop-opacity:1.684600e-02"/>
			<stop  offset="0.6667" style="stop-color:#B4E1FA;stop-opacity:0"/>
		</linearGradient>
		<path class="st9" d="M-4.4-0.1C-4.4,4.6,0,8.4,0,8.4s4.4-3.8,4.4-8.5C4.4-4.8,0-8.6,0-8.6S-4.4-4.8-4.4-0.1z"/>
		<linearGradient id="SVGID_9_" gradientUnits="userSpaceOnUse" x1="4.2589" y1="-4.3379" x2="-4.2587" y2="4.1797">
			<stop  offset="0.3278" style="stop-color:#B4E1FA;stop-opacity:0"/>
			<stop  offset="0.3624" style="stop-color:#BBE3FA;stop-opacity:0.1416"/>
			<stop  offset="0.4081" style="stop-color:#CBE9FC;stop-opacity:0.3282"/>
			<stop  offset="0.4597" style="stop-color:#E3F3FE;stop-opacity:0.5391"/>
			<stop  offset="0.5112" style="stop-color:#FFFFFF;stop-opacity:0.75"/>
			<stop  offset="0.5604" style="stop-color:#ECF7FE;stop-opacity:0.5127"/>
			<stop  offset="0.6632" style="stop-color:#B7E2FA;stop-opacity:1.684600e-02"/>
			<stop  offset="0.6667" style="stop-color:#B4E1FA;stop-opacity:0"/>
		</linearGradient>
		<path class="st10" d="M-4.4-0.1C-4.4,4.6,0,8.4,0,8.4s4.4-3.8,4.4-8.5C4.4-4.8,0-8.6,0-8.6S-4.4-4.8-4.4-0.1z"/>
		<linearGradient id="SVGID_10_" gradientUnits="userSpaceOnUse" x1="-4.4307" y1="-7.910000e-02" x2="4.4326" y2="-7.910000e-02">
			<stop  offset="0.35" style="stop-color:#B4E1FA;stop-opacity:0"/>
			<stop  offset="0.3804" style="stop-color:#BBE3FA;stop-opacity:0.1416"/>
			<stop  offset="0.4206" style="stop-color:#CBE9FC;stop-opacity:0.3282"/>
			<stop  offset="0.4659" style="stop-color:#E3F3FE;stop-opacity:0.5391"/>
			<stop  offset="0.5112" style="stop-color:#FFFFFF;stop-opacity:0.75"/>
			<stop  offset="0.5499" style="stop-color:#ECF7FE;stop-opacity:0.5127"/>
			<stop  offset="0.6306" style="stop-color:#B7E2FA;stop-opacity:1.684600e-02"/>
			<stop  offset="0.6333" style="stop-color:#B4E1FA;stop-opacity:0"/>
		</linearGradient>
		<path class="st11" d="M-4.4-0.1C-4.4,4.6,0,8.4,0,8.4s4.4-3.8,4.4-8.5C4.4-4.8,0-8.6,0-8.6S-4.4-4.8-4.4-0.1z"/>
		<path class="st5" d="M-4.4-0.1C-4.4,4.6,0,8.4,0,8.4s4.4-3.8,4.4-8.5C4.4-4.8,0-8.6,0-8.6S-4.4-4.8-4.4-0.1z"/>
	</g>
	<path class="st6" d="M1.4,6.9C0.6,7.9,0,8.4,0,8.4s-0.6-0.5-1.4-1.5L0,5.2L1.4,6.9z"/>
	<path class="st6" d="M-1.4-7.1C-0.6-8,0-8.6,0-8.6S0.6-8,1.4-7.1L0-5.4L-1.4-7.1z"/>
	<g>
		<linearGradient id="SVGID_11_" gradientUnits="userSpaceOnUse" x1="-3.209" y1="-3.418000e-02" x2="3.2109" y2="-3.418000e-02">
			<stop  offset="0" style="stop-color:#D1C5C4"/>
			<stop  offset="0.1803" style="stop-color:#D7CCCB"/>
			<stop  offset="0.4174" style="stop-color:#E7E2E0"/>
			<stop  offset="0.5112" style="stop-color:#EFEDEB"/>
			<stop  offset="0.6302" style="stop-color:#CDC9C9"/>
			<stop  offset="0.8785" style="stop-color:#837C7E"/>
			<stop  offset="1" style="stop-color:#615A5D"/>
		</linearGradient>
		<polygon class="st12" points="-2,0 -3.2,4.3 0,6.6 3.2,4.3 2,0 3.2,-4.4 0,-6.6 -3.2,-4.4 		"/>
		<linearGradient id="SVGID_12_" gradientUnits="userSpaceOnUse" x1="9.800000e-04" y1="-6.6201" x2="9.800000e-04" y2="6.5518">
			<stop  offset="0.3278" style="stop-color:#B4E1FA;stop-opacity:0"/>
			<stop  offset="0.3624" style="stop-color:#BBE3FA;stop-opacity:0.1416"/>
			<stop  offset="0.4081" style="stop-color:#CBE9FC;stop-opacity:0.3282"/>
			<stop  offset="0.4597" style="stop-color:#E3F3FE;stop-opacity:0.5391"/>
			<stop  offset="0.5112" style="stop-color:#FFFFFF;stop-opacity:0.75"/>
			<stop  offset="0.5604" style="stop-color:#ECF7FE;stop-opacity:0.5127"/>
			<stop  offset="0.6632" style="stop-color:#B7E2FA;stop-opacity:1.684600e-02"/>
			<stop  offset="0.6667" style="stop-color:#B4E1FA;stop-opacity:0"/>
		</linearGradient>
		<polygon class="st13" points="-2,0 -3.2,4.3 0,6.6 3.2,4.3 2,0 3.2,-4.4 0,-6.6 -3.2,-4.4 		"/>
		<linearGradient id="SVGID_13_" gradientUnits="userSpaceOnUse" x1="-3.7883" y1="-3.824" x2="3.7903" y2="3.7546">
			<stop  offset="0.3278" style="stop-color:#B4E1FA;stop-opacity:0"/>
			<stop  offset="0.3624" style="stop-color:#BBE3FA;stop-opacity:0.1416"/>
			<stop  offset="0.4081" style="stop-color:#CBE9FC;stop-opacity:0.3282"/>
			<stop  offset="0.4597" style="stop-color:#E3F3FE;stop-opacity:0.5391"/>
			<stop  offset="0.5112" style="stop-color:#FFFFFF;stop-opacity:0.75"/>
			<stop  offset="0.5604" style="stop-color:#ECF7FE;stop-opacity:0.5127"/>
			<stop  offset="0.6632" style="stop-color:#B7E2FA;stop-opacity:1.684600e-02"/>
			<stop  offset="0.6667" style="stop-color:#B4E1FA;stop-opacity:0"/>
		</linearGradient>
		<polygon class="st14" points="-2,0 -3.2,4.3 0,6.6 3.2,4.3 2,0 3.2,-4.4 0,-6.6 -3.2,-4.4 		"/>
		<linearGradient id="SVGID_14_" gradientUnits="userSpaceOnUse" x1="3.7903" y1="-3.824" x2="-3.7883" y2="3.7546">
			<stop  offset="0.3278" style="stop-color:#B4E1FA;stop-opacity:0"/>
			<stop  offset="0.3624" style="stop-color:#BBE3FA;stop-opacity:0.1416"/>
			<stop  offset="0.4081" style="stop-color:#CBE9FC;stop-opacity:0.3282"/>
			<stop  offset="0.4597" style="stop-color:#E3F3FE;stop-opacity:0.5391"/>
			<stop  offset="0.5112" style="stop-color:#FFFFFF;stop-opacity:0.75"/>
			<stop  offset="0.5604" style="stop-color:#ECF7FE;stop-opacity:0.5127"/>
			<stop  offset="0.6632" style="stop-color:#B7E2FA;stop-opacity:1.684600e-02"/>
			<stop  offset="0.6667" style="stop-color:#B4E1FA;stop-opacity:0"/>
		</linearGradient>
		<polygon class="st15" points="-2,0 -3.2,4.3 0,6.6 3.2,4.3 2,0 3.2,-4.4 0,-6.6 -3.2,-4.4 		"/>
		<linearGradient id="SVGID_15_" gradientUnits="userSpaceOnUse" x1="-3.209" y1="-3.418000e-02" x2="3.2109" y2="-3.418000e-02">
			<stop  offset="0.35" style="stop-color:#B4E1FA;stop-opacity:0"/>
			<stop  offset="0.3804" style="stop-color:#BBE3FA;stop-opacity:0.1416"/>
			<stop  offset="0.4206" style="stop-color:#CBE9FC;stop-opacity:0.3282"/>
			<stop  offset="0.4659" style="stop-color:#E3F3FE;stop-opacity:0.5391"/>
			<stop  offset="0.5112" style="stop-color:#FFFFFF;stop-opacity:0.75"/>
			<stop  offset="0.5499" style="stop-color:#ECF7FE;stop-opacity:0.5127"/>
			<stop  offset="0.6306" style="stop-color:#B7E2FA;stop-opacity:1.684600e-02"/>
			<stop  offset="0.6333" style="stop-color:#B4E1FA;stop-opacity:0"/>
		</linearGradient>
		<polygon class="st16" points="-2,0 -3.2,4.3 0,6.6 3.2,4.3 2,0 3.2,-4.4 0,-6.6 -3.2,-4.4 		"/>
		<polygon class="st5" points="-2,0 -3.2,4.3 0,6.6 3.2,4.3 2,0 3.2,-4.4 0,-6.6 -3.2,-4.4 		"/>
	</g>
	<g>
		<linearGradient id="SVGID_16_" gradientUnits="userSpaceOnUse" x1="-2.0381" y1="-7.910000e-02" x2="2.0381" y2="-7.910000e-02">
			<stop  offset="0" style="stop-color:#D1C5C4"/>
			<stop  offset="0.1803" style="stop-color:#D7CCCB"/>
			<stop  offset="0.4174" style="stop-color:#E7E2E0"/>
			<stop  offset="0.5112" style="stop-color:#EFEDEB"/>
			<stop  offset="0.6302" style="stop-color:#CDC9C9"/>
			<stop  offset="0.8785" style="stop-color:#837C7E"/>
			<stop  offset="1" style="stop-color:#615A5D"/>
		</linearGradient>
		<polygon class="st17" points="0,-8.6 -2,-0.1 0,8.4 2,-0.1 		"/>
		<linearGradient id="SVGID_17_" gradientUnits="userSpaceOnUse" x1="0" y1="-8.5684" x2="1.039634e-15" y2="8.4102">
			<stop  offset="0.3278" style="stop-color:#B4E1FA;stop-opacity:0"/>
			<stop  offset="0.3624" style="stop-color:#BBE3FA;stop-opacity:0.1416"/>
			<stop  offset="0.4081" style="stop-color:#CBE9FC;stop-opacity:0.3282"/>
			<stop  offset="0.4597" style="stop-color:#E3F3FE;stop-opacity:0.5391"/>
			<stop  offset="0.5112" style="stop-color:#FFFFFF;stop-opacity:0.75"/>
			<stop  offset="0.5604" style="stop-color:#ECF7FE;stop-opacity:0.5127"/>
			<stop  offset="0.6632" style="stop-color:#B7E2FA;stop-opacity:1.684600e-02"/>
			<stop  offset="0.6667" style="stop-color:#B4E1FA;stop-opacity:0"/>
		</linearGradient>
		<polygon class="st18" points="0,-8.6 -2,-0.1 0,8.4 2,-0.1 		"/>
		<linearGradient id="SVGID_18_" gradientUnits="userSpaceOnUse" x1="-4.2427" y1="-4.3237" x2="4.2466" y2="4.1655">
			<stop  offset="0.3278" style="stop-color:#B4E1FA;stop-opacity:0"/>
			<stop  offset="0.3624" style="stop-color:#BBE3FA;stop-opacity:0.1416"/>
			<stop  offset="0.4081" style="stop-color:#CBE9FC;stop-opacity:0.3282"/>
			<stop  offset="0.4597" style="stop-color:#E3F3FE;stop-opacity:0.5391"/>
			<stop  offset="0.5112" style="stop-color:#FFFFFF;stop-opacity:0.75"/>
			<stop  offset="0.5604" style="stop-color:#ECF7FE;stop-opacity:0.5127"/>
			<stop  offset="0.6632" style="stop-color:#B7E2FA;stop-opacity:1.684600e-02"/>
			<stop  offset="0.6667" style="stop-color:#B4E1FA;stop-opacity:0"/>
		</linearGradient>
		<polygon class="st19" points="0,-8.6 -2,-0.1 0,8.4 2,-0.1 		"/>
		<linearGradient id="SVGID_19_" gradientUnits="userSpaceOnUse" x1="4.2466" y1="-4.3237" x2="-4.2427" y2="4.1655">
			<stop  offset="0.3278" style="stop-color:#B4E1FA;stop-opacity:0"/>
			<stop  offset="0.3624" style="stop-color:#BBE3FA;stop-opacity:0.1416"/>
			<stop  offset="0.4081" style="stop-color:#CBE9FC;stop-opacity:0.3282"/>
			<stop  offset="0.4597" style="stop-color:#E3F3FE;stop-opacity:0.5391"/>
			<stop  offset="0.5112" style="stop-color:#FFFFFF;stop-opacity:0.75"/>
			<stop  offset="0.5604" style="stop-color:#ECF7FE;stop-opacity:0.5127"/>
			<stop  offset="0.6632" style="stop-color:#B7E2FA;stop-opacity:1.684600e-02"/>
			<stop  offset="0.6667" style="stop-color:#B4E1FA;stop-opacity:0"/>
		</linearGradient>
		<polygon class="st20" points="0,-8.6 -2,-0.1 0,8.4 2,-0.1 		"/>
		<linearGradient id="SVGID_20_" gradientUnits="userSpaceOnUse" x1="-2.0381" y1="-7.910000e-02" x2="2.0381" y2="-7.910000e-02">
			<stop  offset="0.35" style="stop-color:#B4E1FA;stop-opacity:0"/>
			<stop  offset="0.3804" style="stop-color:#BBE3FA;stop-opacity:0.1416"/>
			<stop  offset="0.4206" style="stop-color:#CBE9FC;stop-opacity:0.3282"/>
			<stop  offset="0.4659" style="stop-color:#E3F3FE;stop-opacity:0.5391"/>
			<stop  offset="0.5112" style="stop-color:#FFFFFF;stop-opacity:0.75"/>
			<stop  offset="0.5499" style="stop-color:#ECF7FE;stop-opacity:0.5127"/>
			<stop  offset="0.6306" style="stop-color:#B7E2FA;stop-opacity:1.684600e-02"/>
			<stop  offset="0.6333" style="stop-color:#B4E1FA;stop-opacity:0"/>
		</linearGradient>
		<polygon class="st21" points="0,-8.6 -2,-0.1 0,8.4 2,-0.1 		"/>
		<polygon class="st22" points="0,-8.6 -2,-0.1 0,8.4 2,-0.1 		"/>
	</g>
</symbol>
<linearGradient id="SVGID_21_" gradientUnits="userSpaceOnUse" x1="-90.0551" y1="-112.5354" x2="-89.0551" y2="-112.5354">
	<stop  offset="0" style="stop-color:#D1C5C4"/>
	<stop  offset="0.1803" style="stop-color:#D7CCCB"/>
	<stop  offset="0.4174" style="stop-color:#E7E2E0"/>
	<stop  offset="0.5112" style="stop-color:#EFEDEB"/>
	<stop  offset="0.6302" style="stop-color:#CDC9C9"/>
	<stop  offset="0.8785" style="stop-color:#837C7E"/>
	<stop  offset="1" style="stop-color:#615A5D"/>
</linearGradient>
<g id="Dice">
</g>
<g>
	<circle cx="241.1" cy="242.6" r="236.7"/>
	<g>
		<path d="M308.5,299l-1-1.8c-0.6-1-1.1-2-1.6-3.1c-0.4-0.8-0.9-1.7-1.3-2.8c-0.6-1.4-0.1-2.9,1.2-3.6c1.2-0.7,2.3-1.3,3.4-1.8
			c1.4-0.6,2.8-1.2,4.2-1.8c2-0.9,4-1.7,6-2.7c6.7-3.1,13.7-6.4,20.6-9.7c5-2.4,9.9-5.1,14-7.3c3.1-1.7,6.2-3.5,9.3-5.2
			c1.1-0.6,2.2-1.3,3.3-1.9c0.9-0.5,1.8-1.1,2.8-1.7c0.7-0.4,1.3-0.6,1.9-0.6c1,0,1.9,0.6,2.6,1.7c1.5,2.4,2.8,4.9,3.8,7.4
			c0.6,1.5,0.1,3.1-1.3,3.9c-1.4,0.8-2.7,1.6-4,2.2l-1.2,0.6c-4.2,2.1-8.5,4.3-12.8,6.3c-3.1,1.5-6.4,3-9.5,4.4
			c-1.3,0.6-8.1,3.8-8.1,3.8c-3,1.4-6,2.8-8.9,4.2c-4.3,2-8.5,4.1-12.7,6.1c-2.5,1.2-5,2.4-7.5,3.6c-0.3,0.1-0.6,0.2-0.9,0.3
			l-0.3,0.1l-0.5,0.2L308.5,299z M358,270.5l13.1-6.5l-0.8-1.5l-12.8,7.4L358,270.5z"/>
		<path class="st23" d="M371.5,256.4c0.5,0,0.9,0.3,1.3,1c1.4,2.3,2.7,4.7,3.7,7.2c0.3,0.8,0.1,1.6-0.6,2c-1.3,0.8-2.6,1.5-3.9,2.1
			c-4.6,2.3-9.3,4.7-14,6.9c-4.4,2.1-8.9,4.2-13.3,6.2c-4.4,2-8.8,4.1-13.1,6.1c-6.7,3.2-13.5,6.4-20.2,9.7c-0.3,0.2-0.7,0.2-1,0.4
			c-0.2-0.1-0.5-0.2-0.7-0.3c-0.8-1.4-1.6-2.9-2.3-4.3c-0.5-0.9-0.9-1.8-1.2-2.7c-0.3-0.7-0.1-1.4,0.6-1.8c1.1-0.6,2.1-1.2,3.3-1.7
			c3.4-1.5,6.9-2.9,10.3-4.5c6.9-3.2,13.8-6.4,20.7-9.8c4.7-2.3,9.4-4.8,14.1-7.3c4.3-2.3,8.4-4.8,12.7-7.2c1-0.6,1.9-1.1,2.9-1.7
			C370.8,256.6,371.1,256.4,371.5,256.4 M357.5,272.4c5.2-2.6,10.4-5.2,15.6-7.8c-0.8-1.5-1.5-2.9-2.2-4.3c-5.2,3-10.3,6-15.6,9
			C356.1,270.3,356.8,271.3,357.5,272.4 M371.5,253.4c-0.9,0-1.8,0.3-2.7,0.9c-1,0.6-1.9,1.2-2.7,1.7c-1.1,0.6-2.2,1.3-3.4,1.9
			c-3,1.7-6.1,3.5-9.2,5.2c-4.1,2.2-9,4.8-13.9,7.3c-6.9,3.4-13.9,6.6-20.6,9.7c-2,0.9-4,1.8-6,2.7c-1.4,0.6-2.8,1.2-4.2,1.8
			c-1.1,0.5-2.3,1.1-3.5,1.8c-2,1.1-2.7,3.4-1.8,5.5c0.5,1.1,0.9,2,1.3,2.9c0.5,1,1.1,2.1,1.7,3.1c0.2,0.4,0.5,0.8,0.7,1.3l0.6,1
			l1.1,0.4l0.3,0.1l0.5,0.2l1,0.4l1-0.4c0.1,0,0.2-0.1,0.2-0.1c0.3-0.1,0.7-0.2,1-0.4c2.5-1.2,5-2.4,7.5-3.6c4.2-2,8.5-4,12.7-6.1
			c2.9-1.4,5.9-2.8,8.8-4.1c1.4-0.7,2.9-1.3,4.3-2c1.3-0.6,2.6-1.2,3.9-1.8c3.1-1.4,6.3-2.9,9.4-4.4c4.3-2.1,8.6-4.2,12.8-6.3
			l1.2-0.6c1.3-0.6,2.6-1.4,4.1-2.2c2-1.2,2.8-3.5,1.9-5.7c-1-2.6-2.4-5.2-3.9-7.7C374.1,253.8,372.6,253.4,371.5,253.4L371.5,253.4
			z"/>
	</g>
	<text transform="matrix(1 0 0 1 95.0457 550.6198)" class="st24 st25">Tryllejan.dk</text>
	<path class="st23" d="M196,231.4c-6.3,55.4-37.5,132-51.1,189.5l44.8-33.8l37.5-38L196,231.4z"/>
	<g>
		<path class="st23" d="M250.1,221.4c44.9,13.5,70.6,97.8,31.7,136.7c-26.7,26.7-73.9,41.2-106.7,79c0,0,19.9-158.9,20.8-205.6"/>
	</g>
	<path class="st23" d="M167.6,149.9c4.6,5.1,8.6,0.2,19.4-9.9c9.2-8.6,32.8-10.2,36-10.4c20.3-1.2,30-9.4,33.5-13.2
		c8.5-9.3,8.2-15.4,5.3-18.6c-8.8-9.6-14.9,9.1-18,10.4c-6.9-23.3-7.6-69.3-7.6-69.3c-29-11.2-95.1,19.3-86.8,37.9
		c3.7,8.2,31.2,37,34.6,50.8C175,129.4,160.8,142.3,167.6,149.9z M179.5,103c-0.2-0.2-0.3-0.5-0.4-0.7c-3.7-5.4-7.4-10.9-11.2-16.3
		c-3.1-4.3-6.4-8.4-9.6-12.6c-0.4-0.5-0.5-0.8,0-1.4c3.7-4.7,8.3-8.2,13.3-11.4c0.6-0.4,0.9-0.2,1.2,0.4c2.4,4.6,4.9,9.1,7.1,13.7
		c3.3,6.7,6.5,13.4,9.7,20.2c0.2,0.5,0.2,0.8-0.3,1.1c-1.4,0.9-2.7,1.7-4,2.7C183.3,100,181.5,101.5,179.5,103z"/>
	<g>
		<g>
			<path class="st23" d="M246.6,268.5l11.2,24.9l48.6-12.7c0,0,13.5,22.8,6.7,24.7c0,0-57.4,23.2-74.5,15
				c-15.6-7.5-32.2-61.4-32.2-61.4"/>
			<path d="M246.9,268.4c1.1,2,2.2,4,3.3,6c1.1,2,2.1,4,3.2,6.1l3.1,6.1c1,2,2,4.1,3,6.1l-2-1c4-1.3,8-2.4,12.1-3.6
				c4-1.2,8.1-2.3,12.1-3.3c4-1.1,8.1-2.1,12.2-2.9c4.1-0.9,8.2-1.7,12.3-2.6l1.1-0.2l0.4,0.9c1.1,2.1,2.1,4.1,3,6.2
				c0.9,2.1,1.9,4.2,2.7,6.4c0.8,2.2,1.6,4.3,2.1,6.6c0.2,1.2,0.4,2.4,0.3,3.6c-0.1,0.6-0.2,1.3-0.6,2c-0.4,0.7-1.1,1.1-1.8,1.3
				l0.1,0c-5.7,2.4-11.4,4.7-17.2,6.9c-2.9,1.1-5.8,2.2-8.7,3.2c-2.9,1-5.9,2-8.8,2.9c-5.9,1.8-12,3.3-18.2,4.4
				c-3.1,0.5-6.2,1-9.4,1.1c-3.2,0.1-6.5,0.1-9.9-0.7c-1.7-0.4-3.5-1-5.1-2c-1.6-1-2.9-2.1-4.1-3.3c-2.3-2.4-4.2-5-5.9-7.7
				c-3.4-5.4-6.1-11-8.5-16.8c-1.2-2.9-2.4-5.7-3.4-8.7c-1.1-2.9-2.1-5.8-3-8.8c-1.9-5.9-3.6-11.8-5-17.8l0.5-0.1
				c4.6,11.4,9.3,22.8,14.7,33.7c2.7,5.4,5.6,10.8,9,15.7c1.7,2.4,3.5,4.8,5.5,6.7c1,1,2,1.8,3.1,2.5c1,0.6,2.2,1,3.5,1.3
				c2.6,0.6,5.5,0.7,8.4,0.6c2.9-0.1,5.9-0.4,8.9-0.8c6-0.8,11.9-2.1,17.8-3.6c11.8-3,23.8-6,35.2-10.4l0.1,0l0,0
				c0.4-0.1,0.7-0.3,0.9-0.6c0.2-0.3,0.3-0.8,0.4-1.3c0.1-1,0-2.1-0.3-3.1c-0.5-2.1-1.3-4.3-2.2-6.3c-0.9-2.1-1.9-4.1-3.1-6
				c-1.1-2-2.3-3.9-3.5-5.8l1.6,0.6c-4,1.3-8,2.6-12,3.8c-4,1.2-8,2.4-12.1,3.4c-4.1,1-8.1,2.1-12.2,3c-4.1,0.9-8.2,1.9-12.3,2.8
				l-1.5,0.3l-0.5-1.3c-0.9-2.1-1.7-4.2-2.6-6.3l-2.5-6.4c-0.8-2.1-1.6-4.3-2.4-6.4c-0.8-2.1-1.6-4.3-2.3-6.4L246.9,268.4z"/>
		</g>
	</g>
	<path d="M256.8,237.3c3.1,0,5.6,2.4,5.6,5.5c0,3-2.5,5.6-5.5,5.6c-3,0-5.6-2.5-5.6-5.5C251.3,239.8,253.7,237.3,256.8,237.3z"/>
	<path d="M267.4,253.7c3.1,0,5.6,2.4,5.6,5.5c0,3-2.5,5.6-5.5,5.6c-3,0-5.6-2.5-5.6-5.5C261.9,256.2,264.3,253.7,267.4,253.7z"/>
	<path d="M275.6,270c3.1,0,5.6,2.4,5.6,5.5c0,3-2.5,5.6-5.5,5.6c-3,0-5.6-2.5-5.6-5.5C270,272.5,272.5,270,275.6,270z"/>
	<path class="st23" d="M260.7,226c-3.7-2.2-7.7-4.1-11.8-5.4c-4.7-1.5-9.6-2.8-14.4-3.8c-0.9-0.2-1.8-0.3-2.6-0.5
		c-4.8-0.9-9.6-1.7-14.4-2.3c-2.4-0.3-4.7-0.6-7.1-0.9c-2.3-0.2-4.6-0.5-6.9-0.7c-4.5-0.4-13.2-0.8-17.4-1.1
		c-0.3,1.5-2.9,23.9-2.9,23.9l7-0.5c4.7-0.8,9.4-1.7,13.9-3c4.6-1.3,9.1-2.8,13.7-3.9c4.6-1.1,9.3-1.9,14-2.5
		c4.7-0.6,9.5-1.1,14.2-1.8l15.8,3.2L260.7,226z"/>
	<path class="st23" d="M276.5,184.9c1.7,2,3.1,4.1,4.3,6.4c3.3,6.3,4.7,13,3.9,20.1c-0.1,1.3-0.2,1.3-1.5,1.4
		c-5.4,0.3-10.8,0-16-1.6c-1.7-0.5-3.4-1.4-5.1-2c-0.3-0.1-0.7-0.2-1-0.1c-2.1,0.5-4.3,1.1-6.4,1.7c-0.3,0.1-0.5,0.2-0.7,0.5
		c-3,4.9-7.3,8.4-12.1,11.3c-1.7,1-3.4,1.8-5.1,2.8c-0.4,0.2-0.6,0.1-0.9-0.2c-1.8-2.3-3.3-4.9-4.4-7.6c-2.5-6.2-3.2-12.6-2.2-19.2
		c0.1-0.6,0.3-0.9,1-0.9c5.7,0.1,11.3,0.5,16.8,2.3c1.5,0.5,2.9,1.3,4.4,1.9c0.2,0.1,0.6,0.2,0.8,0.1c2.2-0.6,4.4-1.2,6.6-1.8
		c0.2-0.1,0.5-0.2,0.6-0.4c1.9-3.4,4.7-6,7.7-8.5c2.8-2.3,5.9-4.2,9-6C276.2,185,276.3,185,276.5,184.9z"/>
	<path class="st23" d="M384.7,211.2c-1.3,7.3-5.2,14.9-11.7,18.3c7.1,2.7,10.8,10.4,11.7,18.6c1.2-8.2,4.9-16.1,11.6-18.6
		C390.8,226.7,386.5,219.5,384.7,211.2z"/>
	<path class="st23" d="M411.7,231c-1,5.8-4.1,11.7-9.2,14.4c5.6,2.2,8.5,8.2,9.2,14.7c1-6.5,3.9-12.7,9.2-14.7
		C416.5,243.3,413.1,237.6,411.7,231z"/>
	<path class="st23" d="M423.7,204.7c-0.8,4.8-3.4,9.7-7.6,11.9c4.6,1.8,7,6.8,7.6,12.1c0.8-5.3,3.2-10.5,7.6-12.1
		C427.7,214.8,424.9,210.1,423.7,204.7z"/>
</g>
</svg>
